<svg width="89" height="89" viewBox="0 0 89 89" fill="none" xmlns="http://www.w3.org/2000/svg">
<g clip-path="url(#clip0_4_21)">
<path d="M50.036 57.2809C50.036 61.9296 51.8827 66.3879 55.1698 69.675C58.457 72.9621 62.9152 74.8088 67.5639 74.8088C72.2126 74.8088 76.6709 72.9621 79.9581 69.675C83.2452 66.3879 85.0919 61.9296 85.0919 57.2809C85.0919 52.6322 83.2452 48.1739 79.9581 44.8868C76.6709 41.5996 72.2126 39.753 67.5639 39.753C62.9152 39.753 58.457 41.5996 55.1698 44.8868C51.8827 48.1739 50.036 52.6322 50.036 57.2809Z" fill="#178E3B"/>
<path d="M1.66223 57.2809C1.66223 61.9296 3.50892 66.3879 6.79604 69.675C10.0832 72.9621 14.5415 74.8088 19.1902 74.8088C23.8389 74.8088 28.2972 72.9621 31.5843 69.675C34.8714 66.3879 36.7181 61.9296 36.7181 57.2809C36.7181 52.6322 34.8714 48.1739 31.5843 44.8868C28.2972 41.5996 23.8389 39.753 19.1902 39.753C14.5415 39.753 10.0832 41.5996 6.79604 44.8868C3.50892 48.1739 1.66223 52.6322 1.66223 57.2809Z" fill="#178E3B"/>
<path d="M12.5999 57.2809C12.5999 58.1463 12.7704 59.0033 13.1016 59.8029C13.4328 60.6024 13.9182 61.3289 14.5302 61.9409C15.1421 62.5529 15.8686 63.0383 16.6682 63.3695C17.4678 63.7007 18.3247 63.8711 19.1902 63.8711C20.0556 63.8711 20.9126 63.7007 21.7121 63.3695C22.5117 63.0383 23.2382 62.5529 23.8502 61.9409C24.4621 61.3289 24.9476 60.6024 25.2788 59.8029C25.61 59.0033 25.7804 58.1463 25.7804 57.2809C25.7804 55.5331 25.0861 53.8568 23.8502 52.6209C22.6143 51.385 20.938 50.6906 19.1902 50.6906C17.4423 50.6906 15.7661 51.385 14.5302 52.6209C13.2942 53.8568 12.5999 55.5331 12.5999 57.2809Z" fill="#2FA65B"/>
<path d="M60.9737 57.2809C60.9737 59.0287 61.668 60.705 62.9039 61.9409C64.1398 63.1768 65.8161 63.8711 67.5639 63.8711C69.3118 63.8711 70.988 63.1768 72.224 61.9409C73.4599 60.705 74.1542 59.0287 74.1542 57.2809C74.1542 55.5331 73.4599 53.8568 72.224 52.6209C70.988 51.385 69.3118 50.6906 67.5639 50.6906C65.8161 50.6906 64.1398 51.385 62.9039 52.6209C61.668 53.8568 60.9737 55.5331 60.9737 57.2809Z" fill="#2FA65B"/>
<path d="M19.1941 76.4672C14.7542 76.4677 10.4515 74.9286 7.01916 72.1122C3.58684 69.2958 1.23729 65.3764 0.370864 61.0218C-0.49556 56.6672 0.174756 52.147 2.26759 48.2312C4.36043 44.3155 7.74628 41.2466 11.8482 39.5475C15.9502 37.8483 20.5143 37.6241 24.7631 38.913C29.0118 40.2019 32.6822 42.9241 35.1487 46.6159C37.6153 50.3076 38.7255 54.7404 38.29 59.1589C37.8546 63.5775 35.9005 67.7083 32.7608 70.8475C30.9833 72.6348 28.8691 74.0517 26.5403 75.0163C24.2116 75.9809 21.7147 76.4741 19.1941 76.4672ZM19.1941 41.4114C10.444 41.4114 3.32065 48.5307 3.32065 57.2848C3.32065 66.0389 10.44 73.1583 19.1941 73.1583C27.9482 73.1583 35.0676 66.0389 35.0676 57.2848C35.0676 48.5307 27.9411 41.4114 19.1941 41.4114Z" fill="#203529"/>
<path d="M9.32254 63.7645C9.17689 63.7646 9.03379 63.7263 8.90763 63.6535C8.78148 63.5808 8.67671 63.476 8.60389 63.3499C5.23887 57.5217 7.2432 50.0423 13.0714 46.6772C18.8995 43.3122 26.379 45.3165 29.744 51.1447C29.7985 51.239 29.8338 51.3432 29.848 51.4511C29.8622 51.5591 29.855 51.6688 29.8268 51.774C29.7986 51.8792 29.75 51.9778 29.6837 52.0642C29.6174 52.1506 29.5347 52.2231 29.4404 52.2776C29.3461 52.332 29.2419 52.3674 29.134 52.3816C29.026 52.3958 28.9163 52.3886 28.8111 52.3604C28.7059 52.3322 28.6073 52.2835 28.5209 52.2172C28.4345 52.1509 28.362 52.0682 28.3075 51.9739C25.3998 46.9378 18.9366 45.206 13.9006 48.1137C8.8645 51.0215 7.12948 57.4846 10.0333 62.5207C10.1058 62.6462 10.1441 62.7885 10.1444 62.9335C10.1447 63.0784 10.1071 63.2209 10.0351 63.3467C9.96324 63.4726 9.8596 63.5774 9.73457 63.6507C9.60954 63.724 9.46747 63.7632 9.32254 63.7645ZM67.5687 76.4775C62.8094 76.4869 58.2157 74.731 54.6762 71.5494C51.1368 68.3677 48.903 63.9865 48.407 59.2531C47.911 54.5198 49.1881 49.7707 51.9912 45.9244C54.7943 42.0782 58.9242 39.4082 63.582 38.4309C68.2399 37.4536 73.0947 38.2384 77.2073 40.6336C81.32 43.0287 84.3983 46.864 85.8467 51.3975C87.2951 55.9311 87.0107 60.8407 85.0486 65.1766C83.0864 69.5126 79.586 72.9669 75.2243 74.8712C72.8099 75.927 70.2038 76.4738 67.5687 76.4775ZM61.7555 72.0495C69.8992 75.2518 79.1294 71.2321 82.3326 63.0893C85.5357 54.9464 81.5152 45.7154 73.3724 42.5122C69.4553 40.9728 65.0872 41.052 61.2285 42.7324C57.3698 44.4128 54.3364 47.5568 52.7953 51.4732C49.5922 59.6161 53.6119 68.8472 61.7555 72.0495Z" fill="#203529"/>
<path d="M69.2887 69.3542C69.079 69.3547 68.8769 69.2757 68.7231 69.1332C68.5693 68.9906 68.4752 68.7951 68.4598 68.586C68.4444 68.3768 68.5088 68.1696 68.64 68.0061C68.7712 67.8425 68.9595 67.7347 69.167 67.7045C74.9178 66.8421 78.8972 61.4617 78.0285 55.7109C78.0124 55.6032 78.0176 55.4934 78.0438 55.3877C78.0701 55.282 78.1169 55.1825 78.1816 55.0949C78.2464 55.0073 78.3277 54.9333 78.421 54.8772C78.5143 54.821 78.6178 54.7838 78.7255 54.7676C78.8332 54.7514 78.943 54.7566 79.0487 54.7829C79.1544 54.8091 79.2539 54.856 79.3415 54.9207C79.4291 54.9854 79.5031 55.0667 79.5592 55.1601C79.6154 55.2534 79.6526 55.3568 79.6688 55.4645C80.671 62.1172 76.0685 68.3465 69.4127 69.3455C69.3716 69.3515 69.3302 69.3544 69.2887 69.3542ZM19.1941 60.1784C18.621 60.1784 18.0608 60.0085 17.5843 59.6901C17.1078 59.3717 16.7364 58.9192 16.5171 58.3897C16.2978 57.8603 16.2404 57.2777 16.3522 56.7156C16.464 56.1536 16.74 55.6373 17.1452 55.2321C17.5505 54.8268 18.0667 54.5509 18.6288 54.4391C19.1909 54.3273 19.7734 54.3846 20.3029 54.604C20.8323 54.8233 21.2849 55.1946 21.6033 55.6711C21.9216 56.1476 22.0916 56.7078 22.0916 57.2809C22.0907 58.0491 21.7852 58.7856 21.242 59.3288C20.6988 59.872 19.9623 60.1776 19.1941 60.1784ZM19.1941 56.0418C18.949 56.0418 18.7094 56.1145 18.5057 56.2506C18.3019 56.3868 18.1431 56.5803 18.0493 56.8067C17.9555 57.0331 17.931 57.2823 17.9788 57.5226C18.0266 57.763 18.1446 57.9838 18.3179 58.1571C18.4912 58.3303 18.712 58.4484 18.9523 58.4962C19.1927 58.544 19.4418 58.5194 19.6682 58.4257C19.8947 58.3319 20.0882 58.1731 20.2243 57.9693C20.3605 57.7655 20.4331 57.526 20.4331 57.2809C20.4327 56.9524 20.3021 56.6375 20.0698 56.4052C19.8375 56.1729 19.5226 56.0422 19.1941 56.0418ZM67.5639 60.1784C66.9908 60.1784 66.4306 60.0085 65.9541 59.6901C65.4777 59.3717 65.1063 58.9192 64.887 58.3897C64.6677 57.8603 64.6103 57.2777 64.7221 56.7156C64.8339 56.1536 65.1098 55.6373 65.5151 55.2321C65.9203 54.8268 66.4366 54.5509 66.9986 54.4391C67.5607 54.3273 68.1433 54.3846 68.6727 54.604C69.2022 54.8233 69.6547 55.1946 69.9731 55.6711C70.2915 56.1476 70.4614 56.7078 70.4614 57.2809C70.4606 58.0491 70.155 58.7856 69.6118 59.3288C69.0686 59.872 68.3321 60.1776 67.5639 60.1784ZM67.5639 56.0418C67.3188 56.0418 67.0793 56.1145 66.8755 56.2506C66.6717 56.3868 66.5129 56.5803 66.4191 56.8067C66.3254 57.0331 66.3008 57.2823 66.3486 57.5226C66.3964 57.763 66.5145 57.9838 66.6877 58.1571C66.861 58.3303 67.0818 58.4484 67.3222 58.4962C67.5625 58.544 67.8117 58.5194 68.0381 58.4257C68.2645 58.3319 68.458 58.1731 68.5942 57.9693C68.7303 57.7655 68.803 57.526 68.803 57.2809C68.8026 56.9524 68.6719 56.6375 68.4396 56.4052C68.2073 56.1729 67.8924 56.0422 67.5639 56.0418Z" fill="#203529"/>
<path d="M19.1941 58.9401C18.8931 58.9403 18.5978 58.8586 18.3397 58.7038C18.0817 58.5489 17.8706 58.3268 17.7292 58.0611C13.2032 49.5716 12.0787 41.6854 14.3847 34.6205C15.7849 30.3307 18.5134 26.3426 22.274 23.0882C25.1083 20.64 27.5383 19.4491 27.6402 19.4002C28.0361 19.2084 28.4919 19.1818 28.9074 19.3261C29.3229 19.4704 29.664 19.7739 29.8558 20.1698C30.0475 20.5656 30.0742 21.0214 29.9298 21.4369C29.7855 21.8524 29.482 22.1936 29.0862 22.3853C29.0641 22.3956 26.875 23.4752 24.3573 25.6722C22.0766 27.6623 19.0393 31.0147 17.5246 35.6851C15.525 41.8505 16.5769 48.8545 20.6519 56.5014C20.7864 56.7537 20.8534 57.0365 20.8464 57.3223C20.8394 57.6081 20.7587 57.8872 20.612 58.1326C20.4653 58.378 20.2577 58.5813 20.0092 58.7228C19.7608 58.8643 19.48 58.9391 19.1941 58.9401Z" fill="#203529"/>
<path d="M48.3238 44.992C47.5162 44.992 46.7083 44.9656 45.9002 44.913C40.9691 44.5789 36.0286 43.2269 31.2255 40.8965C23.0835 36.9478 18.1674 31.5927 17.9621 31.3668C17.7124 31.0917 17.5624 30.7408 17.5359 30.3702C17.5095 29.9996 17.6083 29.6309 17.8164 29.3232C18.0246 29.0155 18.33 28.7865 18.6838 28.6731C19.0375 28.5596 19.4191 28.5683 19.7674 28.6976C19.8464 28.7268 27.7705 31.6425 37.4027 32.9574C46.0952 34.1419 58.0146 34.243 65.4127 27.9695C65.5773 27.8192 65.7704 27.7036 65.9806 27.6296C66.1909 27.5556 66.4139 27.5248 66.6363 27.5389C66.8587 27.553 67.076 27.6118 67.2752 27.7118C67.4743 27.8118 67.6513 27.9509 67.7955 28.1208C67.9397 28.2907 68.0482 28.488 68.1145 28.7008C68.1808 28.9135 68.2035 29.1375 68.1813 29.3592C68.1591 29.581 68.0924 29.796 67.9852 29.9914C67.8781 30.1868 67.7326 30.3586 67.5576 30.4966C63.8332 33.6555 58.8959 35.6693 52.8837 36.4882C48.1793 37.1295 42.7989 37.041 36.8918 36.2316C33.331 35.734 29.8013 35.0347 26.3198 34.1372C28.3621 35.5886 30.5222 36.8669 32.7773 37.9587C42.8234 42.7965 52.9343 42.9339 62.8295 38.3788C63.229 38.1947 63.6853 38.1769 64.098 38.3292C64.5107 38.4815 64.846 38.7915 65.0301 39.191C65.2142 39.5906 65.232 40.0469 65.0797 40.4595C64.9274 40.8722 64.6174 41.2075 64.2178 41.3916C59.0215 43.7845 53.6861 44.992 48.3238 44.992Z" fill="#203529"/>
<path d="M67.5655 58.9401C67.3172 58.9402 67.0721 58.8845 66.8482 58.7772C66.6243 58.6699 66.4274 58.5137 66.2719 58.3201C66.1165 58.1265 66.0064 57.9005 65.95 57.6587C65.8936 57.4169 65.8921 57.1656 65.9458 56.9231C67.0514 51.9345 66.287 46.7033 63.6793 41.3751C61.6939 37.3182 59.3287 34.7343 59.305 34.7082C59.0122 34.3846 58.8588 33.9587 58.878 33.5227C58.8971 33.0868 59.0874 32.6759 59.4074 32.3793C59.7274 32.0826 60.1515 31.9241 60.5876 31.938C61.0238 31.9519 61.4369 32.1371 61.7374 32.4535C61.8456 32.5696 64.4074 35.3542 66.61 39.8185C67.9083 42.4507 68.8165 45.1318 69.3092 47.7868C69.93 51.14 69.8881 54.4568 69.1837 57.6394C69.1022 58.008 68.8975 58.3378 68.6033 58.5743C68.3091 58.8108 67.943 58.9398 67.5655 58.9401ZM51.6913 32.2395C51.2163 32.2398 50.7418 32.2134 50.2698 32.1605C47.1433 31.8083 46.3109 30.311 46.0921 29.4494C45.8734 28.5878 45.8939 26.8749 48.4755 25.0767C49.942 24.0556 51.9779 23.1814 54.2089 22.6167C56.4399 22.0521 58.6464 21.8507 60.4225 22.0505C63.549 22.4027 64.3814 23.9 64.6001 24.7616C64.8189 25.6232 64.7983 27.3361 62.2167 29.1343C60.751 30.1554 58.7143 31.0297 56.4833 31.5943C54.8162 32.02 53.1617 32.2395 51.6913 32.2395ZM49.4564 28.6013C50.2169 28.9258 52.4439 29.1999 55.6691 28.3825C58.8943 27.5651 60.7234 26.2645 61.2367 25.6185C60.4762 25.2939 58.2491 25.0199 55.0239 25.8372C51.7987 26.6546 49.9713 27.9537 49.4564 28.6013ZM31.0297 27.3101H30.9278C23.4934 26.856 19.8259 23.5233 19.6758 23.3812L21.9345 20.952L21.925 20.9433C21.955 20.9701 24.963 23.622 31.1284 23.9964C31.5683 24.0095 31.9849 24.1967 32.2867 24.517C32.5884 24.8373 32.7506 25.2643 32.7375 25.7042C32.7244 26.144 32.5371 26.5606 32.2169 26.8624C31.8966 27.1641 31.4696 27.3263 31.0297 27.3132V27.3101Z" fill="#203529"/>
<path d="M19.6426 24.8477C19.4157 24.8476 19.1913 24.8008 18.9832 24.7103L10.9493 21.2229C10.6296 21.0849 10.3615 20.8497 10.1829 20.5508C10.0043 20.2518 9.92429 19.9043 9.95429 19.5573C10.2702 15.9933 12.0478 14.2599 13.4844 13.4338C14.4492 12.8762 15.5359 12.5634 16.6496 12.5225C16.933 12.5223 17.2118 12.5948 17.4593 12.7331C17.7068 12.8713 17.9147 13.0707 18.0632 13.3122L22.3427 20.2862C22.5047 20.5504 22.5895 20.8547 22.5874 21.1645C22.5853 21.4744 22.4964 21.7775 22.3308 22.0394L21.0452 24.0738C20.8958 24.3107 20.6888 24.506 20.4435 24.6413C20.1983 24.7766 19.9227 24.8476 19.6426 24.8477ZM13.4543 18.6949L18.9327 21.0728L15.8243 16.0059C15.5473 16.0941 15.2821 16.2159 15.0346 16.3684C14.263 16.8509 13.7323 17.6312 13.4543 18.6949ZM41.9421 31.0186C41.8153 31.0186 41.6889 31.004 41.5654 30.9752L30.4303 28.377C30.0118 28.2793 29.6477 28.0229 29.4145 27.662C29.1813 27.3011 29.0973 26.8638 29.1801 26.4421L29.7543 23.5202C29.8187 23.1924 29.9806 22.8918 30.2187 22.6576C30.4568 22.4234 30.7601 22.2666 31.0889 22.2076L41.6467 20.3123C41.9382 20.2598 42.2384 20.2863 42.5161 20.3891C42.7939 20.4919 43.0391 20.6671 43.2262 20.8967C43.9198 21.7961 44.4377 22.8182 44.7527 23.9095C45.4421 26.3316 44.872 28.6715 43.1472 30.4998C42.9922 30.6637 42.8053 30.7942 42.5981 30.8834C42.3909 30.9726 42.1677 31.0186 41.9421 31.0186ZM32.7465 25.5111L41.2834 27.5035C41.7439 26.7241 41.8426 25.8656 41.5875 24.8974C41.4811 24.5059 41.332 24.1272 41.1429 23.7681L32.7931 25.2686L32.7465 25.5111ZM46.896 74.9533H32.7292C32.6202 74.9534 32.5124 74.9319 32.4118 74.8903C32.3111 74.8486 32.2197 74.7876 32.1427 74.7105C32.0656 74.6335 32.0045 74.5421 31.9629 74.4415C31.9212 74.3409 31.8997 74.233 31.8997 74.1241C31.8997 74.0152 31.9212 73.9074 31.9629 73.8068C32.0045 73.7061 32.0656 73.6147 32.1427 73.5377C32.2197 73.4607 32.3111 73.3996 32.4118 73.358C32.5124 73.3163 32.6202 73.2949 32.7292 73.2949H46.896C47.1159 73.295 47.3268 73.3824 47.4822 73.5379C47.6377 73.6934 47.725 73.9042 47.725 74.1241C47.725 74.344 47.6377 74.5549 47.4822 74.7104C47.3268 74.8659 47.1159 74.9533 46.896 74.9533ZM50.2018 71.0647H40.0933C39.8735 71.0647 39.6626 70.9773 39.5071 70.8218C39.3517 70.6663 39.2643 70.4554 39.2643 70.2355C39.2643 70.0156 39.3517 69.8048 39.5071 69.6493C39.6626 69.4938 39.8735 69.4064 40.0933 69.4063H50.2018C50.4217 69.4064 50.6325 69.4938 50.788 69.6493C50.9435 69.8048 51.0308 70.0156 51.0308 70.2355C51.0308 70.4554 50.9435 70.6663 50.788 70.8218C50.6325 70.9773 50.4217 71.0647 50.2018 71.0647ZM83.1341 34.4105H73.0256C72.8058 34.4104 72.5949 34.323 72.4394 34.1675C72.284 34.012 72.1967 33.8011 72.1967 33.5813C72.1967 33.3614 72.284 33.1505 72.4394 32.995C72.5949 32.8395 72.8058 32.7521 73.0256 32.752H83.1341C83.354 32.7521 83.5648 32.8395 83.7203 32.995C83.8758 33.1505 83.9631 33.3614 83.9631 33.5813C83.9631 33.8011 83.8758 34.012 83.7203 34.1675C83.5648 34.323 83.354 34.4104 83.1341 34.4105ZM88.1883 39.1757H78.0799C77.86 39.1756 77.6491 39.0882 77.4937 38.9327C77.3382 38.7772 77.2509 38.5663 77.2509 38.3465C77.2509 38.1266 77.3382 37.9157 77.4937 37.7602C77.6491 37.6047 77.86 37.5173 78.0799 37.5172H88.1883C88.4082 37.5173 88.6191 37.6047 88.7745 37.7602C88.93 37.9157 89.0173 38.1266 89.0173 38.3465C89.0173 38.5663 88.93 38.7772 88.7745 38.9327C88.6191 39.0882 88.4082 39.1756 88.1883 39.1757Z" fill="#203529"/>
</g>
<defs>
<clipPath id="clip0_4_21">
<rect width="89" height="89" fill="white"/>
</clipPath>
</defs>
</svg>
